<svg width="1920" height="898" viewBox="0 0 1920 898" fill="none" xmlns="http://www.w3.org/2000/svg">
  <g opacity="1">
    <path d="M0 126C190 74 342 68 456 108C570 148 642 244 782 220C922 196 1032 58 1194 30C1356 2 1538 84 1684 158C1780 206 1858 238 1920 252V898H0V126Z" fill="#F5EFF2"/>
    <path d="M0 246C146 212 274 218 384 264C494 310 574 402 712 384C850 366 910 260 1058 220C1206 180 1348 226 1482 292C1616 358 1752 438 1920 410V898H0V246Z" fill="#E1D4DB"/>
    <path d="M0 390C172 354 318 378 438 462C558 546 666 626 820 584C974 542 1018 426 1158 418C1298 410 1390 522 1536 560C1682 598 1810 536 1920 468V898H0V390Z" fill="#DBDBDB"/>
    <path d="M0 514C130 496 246 520 348 586C450 652 552 744 690 736C828 728 900 618 1030 594C1160 570 1276 646 1398 708C1520 770 1700 808 1920 728V898H0V514Z" fill="#D3CBCF"/>
    <path d="M132 798C302 726 438 710 540 750C642 790 728 862 862 830C996 798 1102 704 1250 716C1398 728 1504 824 1640 826C1764 828 1850 784 1920 730V898H0V860C42 840 86 819 132 798Z" fill="#DCD3D7"/>
    <circle cx="252" cy="278" r="118" fill="#F9F5F7" opacity="0.72"/>
    <circle cx="1554" cy="258" r="166" fill="#F9F5F7" opacity="0.56"/>
    <circle cx="1138" cy="708" r="94" fill="#F9F5F7" opacity="0.42"/>
    <path d="M158 180C224 122 322 138 368 214C414 290 384 388 300 414C216 440 132 382 126 294C122 250 132 206 158 180Z" stroke="#E1D4DB" stroke-width="5" opacity="0.85"/>
    <path d="M1682 132C1768 176 1794 288 1736 366C1678 444 1558 450 1496 376C1434 302 1460 188 1544 138C1586 114 1638 110 1682 132Z" stroke="#D3CBCF" stroke-width="5" opacity="0.8"/>
    <path d="M610 116C640 84 688 84 718 116C748 148 748 198 718 230C688 262 640 262 610 230C580 198 580 148 610 116Z" fill="#E8DEE3" opacity="0.7"/>
    <path d="M622 128C646 104 682 104 706 128C730 152 730 194 706 218C682 242 646 242 622 218C598 194 598 152 622 128Z" fill="#F9F5F7" opacity="0.82"/>
    <path d="M1192 132C1230 94 1292 94 1330 132C1368 170 1368 232 1330 270C1292 308 1230 308 1192 270C1154 232 1154 170 1192 132Z" fill="#E8DEE3" opacity="0.58"/>
    <path d="M1208 148C1238 118 1284 118 1314 148C1344 178 1344 224 1314 254C1284 284 1238 284 1208 254C1178 224 1178 178 1208 148Z" fill="#F9F5F7" opacity="0.72"/>
  </g>
</svg>
